<?xml version="1.0" encoding="UTF-8"?>
<svg xmlns="http://www.w3.org/2000/svg" width="128" height="128" viewBox="0 0 128 128" role="img" aria-label="Hard Pixel logo mark">
  <title>Hard Pixel Logo Mark</title>
  <g transform="translate(-33.056604 -24.301887) scale(0.150943)">
    <path d="M 625.0 354.0 L 426.0 475.0 L 426.0 695.0 L 628.0 817.0 L 628.0 608.0 L 825.0 492.0 L 826.0 474.0 Z M 624.0 214.0 L 310.0 406.0 L 310.0 762.0 L 625.0 956.0 L 625.0 889.0 L 365.0 730.0 L 365.0 439.0 L 626.0 281.0 L 884.0 436.0 L 884.0 593.0 L 938.0 594.0 L 939.0 403.0 Z M 888.0 636.0 L 888.0 728.0 L 976.0 728.0 L 976.0 637.0 L 975.0 636.0 Z M 887.0 823.0 L 887.0 914.0 L 975.0 914.0 L 975.0 823.0 Z M 709.0 823.0 L 709.0 914.0 L 797.0 914.0 L 797.0 823.0 Z M 798.0 730.0 L 798.0 821.0 L 885.0 821.0 L 885.0 804.0 L 886.0 803.0 L 886.0 791.0 L 885.0 790.0 L 886.0 730.0 Z" fill="#ffffff" fill-rule="evenodd"/>
    <path d="M 779.0 598.0 L 691.0 650.0 L 691.0 761.0 L 698.0 758.0 L 778.0 709.0 Z" fill="#ff170d" fill-rule="evenodd"/>
  </g>
</svg>